<svg width="801" height="1600" viewBox="0 0 801 1600" fill="none" xmlns="http://www.w3.org/2000/svg">
<g clip-path="url(#clip0_390_169223)">
<g clip-path="url(#clip1_390_169223)">
<g opacity="0.15">
<path d="M200.726 1400H400.726V1600C290.336 1600 200.726 1510.39 200.726 1400Z" fill="#003642"/>
<path opacity="0.9" d="M200.726 1200V1400H400.726V1200H200.726Z" fill="#4CB07C"/>
<path d="M200.726 1200C200.726 1089.61 290.336 1000 400.726 1000V1200H200.726Z" fill="#003642"/>
<path d="M393.726 1300C393.726 1248.64 352.086 1207 300.726 1207C249.366 1207 207.726 1248.64 207.726 1300C207.726 1351.36 249.366 1393 300.726 1393C352.086 1393 393.726 1351.36 393.726 1300Z" fill="#025A50"/>
<path d="M355.726 1300C355.726 1269.62 331.106 1245 300.726 1245C270.346 1245 245.726 1269.62 245.726 1300C245.726 1330.38 270.346 1355 300.726 1355C331.106 1355 355.726 1330.37 355.726 1300Z" fill="#18866C"/>
<path d="M290.726 1400H400.726V1510C340.016 1510 290.726 1460.71 290.726 1400Z" fill="#18866C"/>
</g>
<g opacity="0.4">
<path opacity="0.9" d="M400.726 1600V1400H600.726C600.726 1510.39 511.106 1600 400.726 1600Z" fill="#4CB07C"/>
<path d="M600.726 1200H400.726V1400H600.726V1200Z" fill="#18866C"/>
<path d="M400.726 1200V1000H600.726C600.726 1110.38 511.106 1200 400.726 1200Z" fill="#18866C"/>
<path d="M400.726 1510V1400H510.726C510.726 1460.71 461.436 1510 400.726 1510Z" fill="#025A50"/>
<path d="M400.726 1200H600.726V1400" fill="#025A50"/>
<path d="M554.726 1300C554.726 1270.18 530.546 1246 500.726 1246C470.906 1246 446.726 1270.18 446.726 1300C446.726 1329.82 470.906 1354 500.726 1354C530.546 1354 554.726 1329.82 554.726 1300Z" fill="#1A434E"/>
</g>
<g opacity="0.28">
<path d="M500.726 0C445.496 0 400.726 44.77 400.726 100C400.726 155.23 445.496 200 500.726 200C555.956 200 600.726 155.23 600.726 100C600.726 44.77 555.956 0 500.726 0Z" fill="#18866C"/>
<path d="M500.726 45C470.346 45 445.726 69.62 445.726 100C445.726 130.38 470.346 155 500.726 155C531.106 155 555.726 130.38 555.726 100C555.726 69.62 531.106 45 500.726 45Z" fill="#025A50"/>
<path d="M500.726 82C490.786 82 482.726 90.06 482.726 100C482.726 109.94 490.786 118 500.726 118C510.666 118 518.726 109.94 518.726 100C518.726 90.06 510.666 82 500.726 82Z" fill="#1A434E"/>
</g>
<g opacity="0.02">
<path d="M200.726 400V600H400.726V400H200.726Z" fill="#003642"/>
<path d="M379.726 600V500.22C379.726 456.47 344.356 421 300.726 421C257.096 421 221.726 456.47 221.726 500.22V600H379.726Z" fill="#025A50"/>
<path opacity="0.9" d="M300.726 800C245.496 800 200.726 844.77 200.726 900C200.726 955.23 245.496 1000 300.726 1000C355.956 1000 400.726 955.23 400.726 900C400.726 844.77 355.956 800 300.726 800Z" fill="#4CB07C"/>
<path d="M200.726 800V600H400.726C400.726 710.39 311.106 800 200.726 800Z" fill="#18866C"/>
<path d="M200.726 0V200H400.726V0H200.726Z" fill="#003642"/>
<path d="M379.408 507.058C383.302 463.602 351.23 425.217 307.774 421.323C264.317 417.429 225.933 449.501 222.039 492.958C218.145 536.414 250.217 574.799 293.674 578.693C337.13 582.586 375.515 550.514 379.408 507.058Z" fill="#18866C"/>
<path d="M343.726 500C343.726 476.25 324.476 457 300.726 457C276.976 457 257.726 476.25 257.726 500C257.726 523.75 276.976 543 300.726 543C324.476 543 343.726 523.75 343.726 500Z" fill="#003642"/>
<path d="M300.726 850C273.106 850 250.726 872.39 250.726 900C250.726 927.61 273.116 950 300.726 950C328.336 950 350.726 927.61 350.726 900C350.726 872.39 328.336 850 300.726 850Z" fill="#18866C"/>
<path d="M318.726 600C318.726 665.13 265.856 718 200.726 718V600H318.726Z" fill="#025A50"/>
<path d="M400.726 0V200H200.726" fill="#025A50"/>
<path d="M329.726 100C329.726 83.98 316.746 71 300.726 71C284.706 71 271.726 83.98 271.726 100C271.726 116.02 284.706 129 300.726 129C316.746 129 329.726 116.02 329.726 100Z" fill="#18866C"/>
<path d="M400.726 400H200.726V200" fill="#18866C"/>
</g>
<g opacity="0.16">
<path d="M400.726 1000C400.726 889.62 490.346 800 600.726 800V1000H400.726Z" fill="#025A50"/>
<path d="M400.726 600V800H600.726V600H400.726Z" fill="#003642"/>
<path d="M400.726 400V600H600.726V400H400.726Z" fill="#025A50"/>
<path opacity="0.9" d="M400.726 200V400H600.726V200H400.726Z" fill="#4CB07C"/>
<path d="M445.726 493.13V706.86C445.726 737.31 470.346 761.99 500.726 761.99C531.106 761.99 555.726 737.3 555.726 706.86V493.13C555.726 462.68 531.106 438 500.726 438C470.346 438 445.726 462.68 445.726 493.13Z" fill="#18866C"/>
<path d="M500.726 652C470.346 652 445.726 676.63 445.726 707C445.726 737.37 470.346 762 500.726 762C531.106 762 555.726 737.37 555.726 707C555.726 676.63 531.106 652 500.726 652Z" fill="#1A434E"/>
<path d="M600.726 200V400H400.726" fill="#18866C"/>
<path d="M500.726 265C481.396 265 465.726 280.67 465.726 300C465.726 319.33 481.396 335 500.726 335C520.056 335 535.726 319.33 535.726 300C535.726 280.67 520.056 265 500.726 265Z" fill="#1A434E"/>
</g>
<g opacity="0.49">
<path d="M800.726 800H600.726V600" fill="#18866C"/>
<path d="M600.726 400V600H800.726V400H600.726Z" fill="#003642"/>
<path opacity="0.9" d="M600.726 200H800.726V400C690.346 400 600.726 310.38 600.726 200Z" fill="#4CB07C"/>
<path d="M600.726 200C600.726 89.61 690.346 0 800.726 0V200H600.726Z" fill="#025A50"/>
<path d="M800.726 600V400L600.726 600H800.726Z" fill="#18866C"/>
<path d="M722.726 600V678H800.726V600H722.726Z" fill="#025A50"/>
<path d="M722.726 522V600H800.726V522H722.726Z" fill="#025A50"/>
<path d="M752.726 552H800.726V600" fill="#18866C"/>
<path d="M700.726 200C700.726 144.81 745.536 100 800.726 100V200H700.726Z" fill="#1A434E"/>
<path d="M800.726 200V300C745.536 300 700.726 255.19 700.726 200H800.726Z" fill="#1A434E"/>
<path d="M730.726 200C730.726 161.34 762.066 130 800.726 130V200H730.726Z" fill="#18866C"/>
<path d="M800.726 270C762.066 270 730.726 238.66 730.726 200H800.726V270Z" fill="#18866C"/>
<path d="M800.726 168C783.056 168 768.726 182.33 768.726 200H800.726V168Z" fill="#025A50"/>
<path d="M768.726 200C768.726 217.67 783.056 232 800.726 232V200H768.726Z" fill="#025A50"/>
<path opacity="0.9" d="M800.726 600H752.726V552" fill="#4CB07C"/>
<path opacity="0.9" d="M752.726 648H800.726V600H752.726V648Z" fill="#4CB07C"/>
<path d="M780.726 600C780.726 588.96 789.676 580 800.726 580V600H780.726Z" fill="#1A434E"/>
<path d="M800.726 620C789.686 620 780.726 611.05 780.726 600H800.726V620Z" fill="#1A434E"/>
</g>
<g opacity="0.7">
<path d="M600.726 1200V1400H800.726V1200H600.726Z" fill="#003642"/>
<path opacity="0.9" d="M800.726 1400H600.726V1600H800.726V1400Z" fill="#4CB07C"/>
<path d="M600.726 1000H800.726V1200C690.346 1200 600.726 1110.38 600.726 1000Z" fill="#18866C"/>
<path opacity="0.9" d="M600.726 1000C600.726 889.62 690.346 800 800.726 800V1000H600.726Z" fill="#4CB07C"/>
<path d="M600.726 1199.38H800.726V1399.38" fill="#025A50"/>
<path d="M800.726 1400H600.726V1600L800.726 1400Z" fill="#18866C"/>
<path d="M745.726 1000C745.726 969.63 770.346 945 800.726 945V1000H745.726Z" fill="#1A434E"/>
<path d="M800.726 1055C770.356 1055 745.726 1030.38 745.726 1000H800.726V1055Z" fill="#1A434E"/>
<path d="M710.726 1400C710.726 1350.3 751.016 1310 800.726 1310V1400H710.726Z" fill="#1A434E"/>
<path d="M800.726 1490C751.026 1490 710.726 1449.71 710.726 1400H800.726V1490Z" fill="#1A434E"/>
<path opacity="0.9" d="M755.726 1400C755.726 1375.15 775.866 1355 800.726 1355V1400H755.726Z" fill="#4CB07C"/>
<path opacity="0.9" d="M800.726 1445C775.876 1445 755.726 1424.86 755.726 1400H800.726V1445Z" fill="#4CB07C"/>
</g>
</g>
</g>
<defs>
<clipPath id="clip0_390_169223">
<rect width="800" height="1600" fill="white" transform="translate(0.726074)"/>
</clipPath>
<clipPath id="clip1_390_169223">
<rect width="1000" height="1600" fill="white" transform="translate(0.726074)"/>
</clipPath>
</defs>
</svg>